<svg width="128" height="90" viewBox="0 0 128 90" fill="none" xmlns="http://www.w3.org/2000/svg">
<path d="M88.1948 39.9107C87.8036 39.9129 87.4291 40.069 87.1521 40.3452C86.8751 40.6214 86.7179 40.9955 86.7146 41.3867V53.2283H42.9512V46.542C42.9256 46.168 42.7594 45.8174 42.486 45.5609C42.2806 45.3695 42.0253 45.2401 41.7495 45.1877C41.4737 45.1352 41.1887 45.1618 40.9273 45.2644C40.666 45.367 40.439 45.5414 40.2726 45.7674C40.1061 45.9935 40.007 46.262 39.9866 46.542V54.7381C39.9855 55.0315 40.0724 55.3184 40.2359 55.5619C40.3995 55.8054 40.6323 55.9943 40.9043 56.1042C41.0852 56.1796 41.2793 56.2185 41.4752 56.2183H88.2286C88.622 56.2183 88.9994 56.0627 89.2783 55.7853C89.5572 55.508 89.7151 55.1315 89.7173 54.7381V41.4078C89.7179 41.209 89.679 41.0121 89.6031 40.8284C89.5284 40.6438 89.4161 40.4767 89.2732 40.3378C89.131 40.1993 88.9628 40.0901 88.7784 40.0164C88.5926 39.9436 88.3944 39.9077 88.1948 39.9107Z" fill="#313032"/>
<path d="M41.2094 16.3036C41.5998 16.3058 41.9752 16.1538 42.254 15.8806C42.3896 15.7436 42.4967 15.5812 42.5693 15.4026C42.6418 15.2241 42.6784 15.033 42.677 14.8403V2.96055H86.453V9.67646C86.4774 10.0505 86.6456 10.4006 86.9224 10.6534C87.1271 10.845 87.3818 10.9748 87.6572 11.0276C87.9325 11.0805 88.2172 11.0543 88.4782 10.9521C88.7393 10.8499 88.9661 10.6758 89.1323 10.4501C89.2986 10.2243 89.3975 9.9561 89.4176 9.67646V1.48035C89.4182 1.28567 89.3794 1.0929 89.3035 0.91364C89.2317 0.729484 89.1222 0.562376 88.982 0.423057C88.8437 0.285712 88.6799 0.176552 88.4999 0.101641C88.3177 0.0319448 88.124 -0.00249954 87.929 0.000141104H41.1756C40.9809 -0.000415296 40.7879 0.0374608 40.6078 0.111599C40.4278 0.185737 40.2641 0.29468 40.1262 0.432186C39.9883 0.569691 39.8789 0.733055 39.8042 0.912919C39.7296 1.09278 39.6912 1.28561 39.6912 1.48035V14.8022C39.6875 15.0009 39.7249 15.1981 39.8011 15.3816C39.8785 15.5636 39.9905 15.7288 40.131 15.868C40.2741 16.0065 40.442 16.1169 40.6258 16.1936C40.8113 16.268 41.0096 16.3054 41.2094 16.3036Z" fill="#313032"/>
<path opacity="0.75" d="M93.2062 26.2886C92.9579 25.3642 92.4478 24.5311 91.7373 23.8897C91.0268 23.2482 90.1461 22.8256 89.2012 22.6726C88.562 22.5675 87.9085 22.5876 87.277 22.7319C86.3361 22.9526 85.4796 23.4418 84.8114 24.14C84.1433 24.8382 83.6922 25.7153 83.513 26.665L47.2902 30.522L60.7094 21.332C61.4214 21.9914 62.2861 22.4637 63.2257 22.7065C64.1645 22.9531 65.1496 22.9636 66.0934 22.737C67.0372 22.5105 67.9103 22.054 68.6348 21.4081C69.4248 20.693 70.0057 19.7768 70.3154 18.7572C70.6252 17.7377 70.6523 16.6531 70.3937 15.6194C70.1351 14.5857 69.6007 13.6416 68.8473 12.888C68.094 12.1344 67.1502 11.5996 66.1165 11.3406C65.0829 11.0816 63.9984 11.1082 62.9787 11.4176C61.9591 11.727 61.0426 12.3075 60.3272 13.0972C59.6117 13.8869 59.1242 14.856 58.9167 15.9012C58.7091 16.9463 58.7894 18.0282 59.1488 19.0313L44.8965 28.8557C43.9093 28.0748 42.6635 27.6957 41.4087 27.7945C40.1538 27.8934 38.9827 28.4627 38.1299 29.3886C37.6857 29.8932 37.349 30.4831 37.1406 31.1223C36.9322 31.7615 36.8563 32.4365 36.9176 33.106C36.9789 33.7755 37.1761 34.4254 37.4971 35.0161C37.8182 35.6068 38.2564 36.1258 38.7848 36.5414C39.3133 36.957 39.921 37.2604 40.5707 37.4331C41.2205 37.6058 41.8986 37.6442 42.5637 37.5459C43.2287 37.4476 43.8668 37.2147 44.4388 36.8614C45.0108 36.5082 45.5047 36.0419 45.8904 35.4912L69.0028 40.507C69.0415 42.0406 69.6794 43.498 70.7799 44.5668C71.8803 45.6357 73.3557 46.2309 74.8897 46.2248C75.6622 46.2248 76.428 46.0814 77.1481 45.8019C77.9236 45.4953 78.6223 45.022 79.1945 44.4154C79.7668 43.8088 80.1986 43.0838 80.4595 42.2917C80.7813 41.348 80.857 40.3378 80.6795 39.3567C80.5046 38.3796 80.0858 37.4626 79.4617 36.6907C78.8377 35.9188 78.0288 35.3171 77.1101 34.9414C75.7302 34.3723 74.1855 34.3498 72.7896 34.8784C71.3937 35.4071 70.2515 36.4473 69.5948 37.7877L47.3241 33.1948L83.7921 29.4308C84.1166 30.2328 84.646 30.9354 85.3273 31.4685C86.0086 32.0016 86.8179 32.3464 87.6743 32.4684C88.5307 32.5904 89.4042 32.4854 90.2073 32.1639C91.0103 31.8423 91.7149 31.3155 92.2505 30.6362C92.7379 30.0344 93.0795 29.328 93.2485 28.5723C93.4123 27.8182 93.3978 27.0362 93.2062 26.2886ZM90.5757 27.5573C90.551 28.1178 90.3109 28.6472 89.9056 29.035C89.5002 29.4229 88.9608 29.6394 88.3998 29.6394C87.8388 29.6394 87.2994 29.4229 86.894 29.035C86.4887 28.6472 86.2486 28.1178 86.2239 27.5573C86.221 27.306 86.2655 27.0563 86.355 26.8215C86.4847 26.4599 86.7078 26.1391 87.0016 25.8915C87.2953 25.644 87.6493 25.4786 88.0276 25.412C88.406 25.3454 88.7952 25.3801 89.1558 25.5125C89.5164 25.6449 89.8355 25.8704 90.0809 26.1659C90.4112 26.5556 90.5912 27.0507 90.5884 27.5616L90.5757 27.5573ZM61.6186 17.0394C61.6226 16.548 61.7414 16.0643 61.9654 15.6269C62.3097 14.967 62.8796 14.4529 63.5713 14.1781C64.263 13.9033 65.0304 13.8861 65.7336 14.1297C66.1688 14.2792 66.5638 14.5266 66.8882 14.8529C67.2186 15.1947 67.4665 15.6075 67.6131 16.0597C67.7597 16.5119 67.8011 16.9917 67.734 17.4623C67.6624 17.9471 67.4769 18.408 67.1927 18.8072C66.908 19.2094 66.5308 19.5373 66.0929 19.7633C65.6549 19.9892 65.1691 20.1066 64.6763 20.1055C64.0025 20.1049 63.3476 19.8826 62.8126 19.473C62.2776 19.0633 61.8922 18.489 61.7159 17.8387C61.6518 17.5759 61.6234 17.3056 61.6313 17.0352L61.6186 17.0394ZM44.0169 32.6873C44.0175 32.8819 43.9904 33.0755 43.9365 33.2625C43.8175 33.6971 43.5655 34.0836 43.2159 34.368C42.8664 34.6523 42.4366 34.8203 41.9869 34.8484C41.651 34.8726 41.3141 34.8181 41.0029 34.6893C40.6918 34.5605 40.4149 34.3609 40.1945 34.1063C39.974 33.8518 39.8159 33.5493 39.7328 33.2229C39.6497 32.8966 39.6439 32.5553 39.7158 32.2263C39.8084 31.7851 40.0395 31.385 40.3756 31.0844C40.7094 30.7812 41.1291 30.589 41.5768 30.5344C42.0245 30.4799 42.4781 30.5657 42.875 30.7799C43.152 30.9276 43.3921 31.1359 43.5773 31.3892C43.7626 31.6426 43.8883 31.9345 43.945 32.2432C43.9748 32.3822 43.989 32.524 43.9873 32.6662L44.0169 32.6873ZM73.1981 42.9092C72.816 42.6607 72.494 42.3302 72.2556 41.9418C72.0171 41.5533 71.8681 41.1167 71.8194 40.6635C71.8109 40.565 71.8109 40.466 71.8194 40.3675C71.8145 39.8157 71.9608 39.2731 72.2423 38.7984C72.6366 38.1525 73.2545 37.6739 73.9785 37.4536C74.7026 37.2332 75.4823 37.2865 76.1696 37.6033C76.8569 37.9201 77.4039 38.4783 77.7067 39.1719C78.0096 39.8655 78.047 40.6461 77.8121 41.3655C77.6623 41.8312 77.4003 42.2529 77.0493 42.5936C76.6983 42.9343 76.2689 43.1836 75.799 43.3194C75.3541 43.4556 74.8838 43.4875 74.4245 43.4125C73.9686 43.339 73.535 43.1642 73.1558 42.9007L73.1981 42.9092Z" fill="white"/>
<g opacity="0.8">
<path opacity="0.8" d="M0.929932 71.4729H1.8096L1.90687 75.5583C2.51164 73.0208 4.59239 71.1388 7.82769 71.1388C12.2303 71.1388 13.905 73.9428 13.905 78.3961V87.8694H12.7885V78.9036C12.7885 74.6152 11.5409 72.1369 7.6839 72.1369C4.42322 72.1369 2.05066 74.5137 2.05066 78.8655V87.8652H0.929932V71.4729Z" fill="white"/>
<path opacity="0.8" d="M13.8928 88.8124H12.789C12.6653 88.8135 12.5427 88.7902 12.4281 88.7438C12.3135 88.6974 12.2091 88.6288 12.1211 88.5419C12.0331 88.4551 11.9631 88.3517 11.9151 88.2377C11.8672 88.1238 11.8422 88.0014 11.8417 87.8778V78.912C11.8417 74.0738 10.1754 73.0842 7.67593 73.0842C4.71551 73.0842 2.96464 75.2495 2.96464 78.8781V87.8778C2.96409 87.9997 2.93966 88.1204 2.89275 88.233C2.84757 88.3466 2.77832 88.449 2.68975 88.5333C2.60415 88.6203 2.50207 88.6893 2.38948 88.7363C2.27663 88.7819 2.15593 88.8049 2.03423 88.804H0.930416C0.683461 88.804 0.446427 88.7068 0.270666 88.5333C0.0974391 88.3591 0.00014047 88.1234 0 87.8778V71.4729C0.00014047 71.2272 0.0974391 70.9915 0.270666 70.8173C0.446427 70.6439 0.683461 70.5466 0.930416 70.5467H1.81008C2.05575 70.5468 2.2914 70.6441 2.4656 70.8173C2.63847 70.9921 2.73698 71.227 2.7405 71.4729V72.1707C3.41476 71.5309 4.20787 71.0294 5.07499 70.6947C5.94668 70.3502 6.87843 70.1834 7.81549 70.2041C11.0127 70.2041 14.857 71.6082 14.857 78.3918V87.8609C14.8575 87.9861 14.8315 88.11 14.7809 88.2246C14.7329 88.3399 14.6608 88.4437 14.5695 88.5291C14.479 88.6149 14.3727 88.6824 14.2565 88.7278C14.142 88.7798 14.0184 88.8085 13.8928 88.8124Z" fill="white"/>
<path opacity="0.8" d="M28.4075 79.6479C28.4075 75.3341 30.945 71.1473 36.2018 71.1473C40.7651 71.1473 43.4548 74.3572 43.4548 78.3369C43.4646 78.8257 43.4406 79.3146 43.3829 79.8001H29.5197C29.6889 84.7906 32.4421 87.1969 36.2864 87.1969C39.4118 87.1969 41.5898 85.4207 42.2072 83.2807L43.2772 83.4288L43.0531 84.1604C42.5456 85.3573 40.7651 88.2331 36.2864 88.2331C31.4313 88.2077 28.4075 85.0274 28.4075 79.6479ZM42.3637 78.8021C42.3637 74.4883 39.9827 72.1454 36.223 72.1454C32.4632 72.1454 29.9427 74.594 29.5747 78.8021H42.3637Z" fill="white"/>
<path opacity="0.8" d="M36.2992 89.0916C30.8859 89.0916 27.5237 85.4714 27.5237 79.6479C27.5237 75.1311 30.2346 70.2634 36.2019 70.2634C40.9893 70.2634 44.36 73.5875 44.36 78.3453C44.3762 78.881 44.3479 79.4171 44.2754 79.9481C44.2464 80.1564 44.1408 80.3464 43.9793 80.481C43.8196 80.6188 43.6152 80.694 43.4042 80.6925H30.4503C30.8478 84.3338 32.8947 86.3046 36.2823 86.3046C39.1412 86.3046 40.8794 84.6637 41.3573 83.0354C41.4165 82.8317 41.5471 82.656 41.7252 82.5406C41.9044 82.4254 42.1187 82.3775 42.33 82.4053L43.4 82.5448C43.53 82.5612 43.6546 82.6075 43.7637 82.6802C43.8734 82.7485 43.966 82.8411 44.0343 82.9509C44.1055 83.0603 44.1504 83.1848 44.1654 83.3146C44.182 83.4427 44.169 83.5729 44.1274 83.6952L43.8948 84.3972C43.4126 85.556 41.5434 89.0916 36.2992 89.0916ZM30.5687 77.9224H41.4165C41.1458 74.7674 39.3019 73.0123 36.2019 73.0123C33.2077 73.0335 31.1523 74.8562 30.5687 77.9224Z" fill="white"/>
<path opacity="0.8" d="M57.9861 87.1673L64.0761 79.6479L58.0876 72.2553V71.4729H58.8615L64.7823 78.7978L70.7455 71.4729H71.4729V72.175L65.459 79.5675L71.549 87.1208V87.8948H70.7793L64.7316 80.4641L58.6924 87.8948H57.9861V87.1673Z" fill="white"/>
<path opacity="0.8" d="M71.5491 88.8125H70.7794C70.6446 88.8093 70.512 88.7776 70.3904 88.7194C70.2704 88.6581 70.164 88.5732 70.0774 88.4699L64.7529 81.9316L59.4368 88.4699C59.3503 88.5732 59.2438 88.6581 59.1239 88.7194C59.0022 88.7776 58.8696 88.8093 58.7348 88.8125H58.0285C57.902 88.8198 57.7753 88.8011 57.6564 88.7575C57.5366 88.7163 57.427 88.65 57.3349 88.563C57.2423 88.4753 57.1676 88.3705 57.115 88.2542C57.0654 88.1377 57.0382 88.0129 57.0347 87.8863V87.1843C57.0376 86.9715 57.1121 86.7659 57.2461 86.6006L62.8794 79.6648L57.3476 72.8432C57.2133 72.6783 57.1401 72.4722 57.1404 72.2595V71.4729C57.1415 71.2269 57.24 70.9913 57.4144 70.8177C57.5888 70.6442 57.8248 70.5467 58.0708 70.5467H58.8447C58.9815 70.5493 59.1159 70.5825 59.2381 70.644C59.358 70.7037 59.4645 70.7871 59.551 70.8893L64.7825 77.3261L70.0013 70.8893C70.0869 70.7861 70.1936 70.7025 70.3142 70.644C70.4349 70.5826 70.5679 70.5494 70.7033 70.5467H71.4096C71.5349 70.5433 71.6597 70.5634 71.7775 70.6059C71.8953 70.6482 72.0021 70.7161 72.0905 70.8047C72.1827 70.8902 72.2561 70.9939 72.3062 71.1092C72.3531 71.2247 72.3775 71.3482 72.3781 71.4729V72.175C72.3827 72.3889 72.3107 72.5974 72.1751 72.7628L66.6391 79.5675L72.2723 86.5161C72.4079 86.6788 72.4826 86.8836 72.4838 87.0954V87.8694C72.4825 88.1157 72.3837 88.3514 72.2089 88.5249C72.0354 88.7038 71.7983 88.8071 71.5491 88.8125Z" fill="white"/>
<path opacity="0.8" d="M86.427 81.3057V71.4729H87.5435V80.7771C87.5435 85.3911 89.6581 87.1969 92.8215 87.1969C95.4013 87.1969 98.2898 85.5053 98.2898 80.8109V71.4729H99.3852V87.8694H98.5393L98.4336 84.2577C98.0704 85.4499 97.3182 86.486 96.2971 87.2004C95.2759 87.9149 94.0448 88.2666 92.8003 88.1993C88.9476 88.2077 86.427 86.1016 86.427 81.3057Z" fill="white"/>
<path opacity="0.8" d="M92.8093 89.1381C88.1572 89.1381 85.4971 86.2792 85.4971 81.2846V71.4729C85.4968 71.3508 85.5209 71.2299 85.5681 71.1173C85.6154 71.0047 85.6847 70.9028 85.772 70.8174C85.9462 70.6442 86.1818 70.5469 86.4275 70.5467H87.544C87.6671 70.5458 87.7891 70.5688 87.9035 70.6144C88.1321 70.7091 88.3144 70.8898 88.411 71.1177C88.4579 71.2303 88.4823 71.351 88.4829 71.4729V80.7771C88.4829 85.6871 90.9611 86.275 92.822 86.275C95.0169 86.275 97.3599 84.8709 97.3599 80.8067V71.4729C97.361 71.2269 97.4595 70.9913 97.6339 70.8178C97.8082 70.6442 98.0443 70.5467 98.2903 70.5467H99.3856C99.6326 70.5467 99.8696 70.6439 100.045 70.8174C100.219 70.9916 100.316 71.2273 100.316 71.4729V87.8694C100.316 88.1151 100.219 88.3507 100.045 88.5249C99.9597 88.6139 99.8574 88.6851 99.7442 88.7344C99.631 88.7838 99.5091 88.8103 99.3856 88.8125H98.5398C98.2959 88.8148 98.0609 88.7213 97.8853 88.552C97.7097 88.3827 97.6076 88.1513 97.6009 87.9075V87.3577C96.9641 87.9572 96.2143 88.4241 95.3953 88.7312C94.5764 89.0383 93.7045 89.1795 92.8304 89.1466L92.8093 89.1381Z" fill="white"/>
<path opacity="0.8" d="M115 84.2662V83.4203H115.846C116.649 85.8986 118.459 87.2012 121.479 87.2012C124.334 87.2012 126.017 85.8014 126.017 83.9278C126.017 81.8133 124.465 81.0139 121.953 80.4176L119.838 79.9186C117.525 79.3815 115.444 78.375 115.444 75.6049C115.444 72.9955 117.859 71.1516 121.077 71.1516C124.207 71.1516 126.389 72.5556 126.825 74.7971V75.6429H125.979C125.438 73.2027 123.759 72.1327 121.048 72.1327C118.337 72.1327 116.484 73.5791 116.484 75.5879C116.484 77.5968 117.859 78.3919 120.248 78.9966L122.092 79.4196C124.63 80.0201 127.062 81.0605 127.062 83.9025C127.062 86.3427 125.281 88.1824 121.428 88.1824C118.13 88.2078 115.981 86.7318 115 84.2662Z" fill="white"/>
<path opacity="0.8" d="M121.453 89.1381C117.88 89.1381 115.291 87.5268 114.137 84.6002C114.095 84.4939 114.073 84.3805 114.073 84.2661V83.4203C114.073 83.1747 114.171 82.9391 114.345 82.7654C114.518 82.5917 114.754 82.4941 115 82.4941H115.846C116.044 82.4941 116.236 82.5579 116.395 82.676C116.555 82.7903 116.674 82.9536 116.734 83.1412C117.44 85.2558 118.933 86.275 121.453 86.275C123.606 86.275 125.048 85.3276 125.048 83.9278C125.048 82.7267 124.536 81.9951 121.707 81.3184L119.593 80.8109C117.398 80.3076 114.475 79.2207 114.475 75.6006C114.475 72.4752 117.292 70.2169 121.077 70.2169C124.655 70.2169 127.213 71.9085 127.742 74.6152V75.626C127.742 75.8728 127.645 76.1097 127.471 76.2857C127.385 76.3732 127.281 76.4423 127.167 76.4887C127.054 76.5356 126.934 76.56 126.812 76.5606H125.966C125.757 76.5619 125.553 76.4937 125.387 76.3666C125.221 76.2395 125.102 76.0608 125.048 75.8586C124.625 73.9301 123.428 73.1096 121.056 73.1096C118.886 73.1096 117.431 74.1204 117.431 75.626C117.431 76.8355 117.88 77.5122 120.472 78.1296L122.316 78.5525C123.872 78.9205 128 79.8932 128 83.9405C128.021 86.4441 126.296 89.1381 121.453 89.1381Z" fill="white"/>
</g>
</svg>
